<svg width="143" height="32" viewBox="0 0 143 32" fill="none" xmlns="http://www.w3.org/2000/svg">
<path d="M141.436 19.7036C140.896 19.5174 140.405 19.4278 139.964 19.4356C139.523 19.4432 139.076 19.5193 138.623 19.6637C138.17 19.8082 137.792 19.968 137.488 20.1431C137.183 20.3182 136.889 20.5177 136.604 20.7421C136.318 20.9665 136.13 21.1225 136.039 21.21C135.947 21.2975 135.879 21.3679 135.833 21.4212C136.213 20.3864 136.491 19.3099 136.666 18.1914L136.86 18.2256C136.99 18.2485 137.166 18.2656 137.391 18.2771C137.615 18.2885 137.872 18.2922 138.161 18.2885C138.45 18.2847 138.755 18.2486 139.074 18.1801C139.394 18.1116 139.715 18.0203 140.039 17.9061C140.362 17.7921 140.672 17.619 140.969 17.3869C141.265 17.1549 141.53 16.8829 141.762 16.5709C141.994 16.259 142.184 15.8615 142.332 15.3783C142.481 14.8954 142.563 14.357 142.578 13.7636C142.061 13.5886 141.557 13.4973 141.066 13.4897C140.575 13.482 140.149 13.5374 139.788 13.6552C139.426 13.7729 139.078 13.9423 138.743 14.1629C138.409 14.3836 138.139 14.5948 137.933 14.7962C137.728 14.9978 137.535 15.2184 137.357 15.4581C137.178 15.6977 137.062 15.8612 137.009 15.9487C136.956 16.0363 136.918 16.1066 136.895 16.1598C136.903 15.962 136.906 15.69 136.906 15.3438C136.906 14.9977 136.903 14.8056 136.895 14.7676L136.975 14.5964C137.036 14.4823 137.1 14.3224 137.169 14.1171C137.237 13.9116 137.31 13.6759 137.386 13.4096C137.462 13.1433 137.511 12.8522 137.534 12.5364C137.557 12.2207 137.559 11.8955 137.54 11.5607C137.521 11.2259 137.443 10.8873 137.306 10.545C137.169 10.2027 136.986 9.87923 136.758 9.575C136.53 9.27057 136.209 8.97957 135.794 8.70184C135.379 8.42411 134.894 8.19023 134.339 8C133.951 8.5174 133.684 9.04428 133.54 9.58063C133.395 10.1169 133.35 10.6001 133.403 11.03C133.456 11.4599 133.582 11.8878 133.779 12.3139C133.977 12.74 134.182 13.0938 134.396 13.3753C134.609 13.6568 134.85 13.9287 135.12 14.1913C135.39 14.4538 135.577 14.623 135.679 14.699C135.782 14.7752 135.864 14.8359 135.925 14.8816C135.925 15.437 135.879 16.1789 135.787 17.107L135.742 16.9245C135.704 16.8103 135.643 16.66 135.559 16.4737C135.476 16.2874 135.371 16.0744 135.245 15.8347C135.12 15.5951 134.96 15.3553 134.766 15.1157C134.572 14.876 134.359 14.6441 134.127 14.4195C133.895 14.1951 133.616 14.0049 133.289 13.8489C132.961 13.6931 132.611 13.5789 132.238 13.5066C131.866 13.4342 131.438 13.4306 130.955 13.4951C130.471 13.5599 129.964 13.6987 129.431 13.9117C129.477 14.4443 129.585 14.9294 129.756 15.3668C129.928 15.8042 130.135 16.1637 130.378 16.4452C130.622 16.7266 130.907 16.9739 131.234 17.1869C131.561 17.4 131.881 17.5616 132.193 17.672C132.505 17.7824 132.841 17.8699 133.203 17.9345C133.564 17.9992 133.874 18.0372 134.133 18.0487C134.392 18.0601 134.656 18.0621 134.926 18.0544C135.196 18.0467 135.373 18.0374 135.457 18.0259C135.541 18.0144 135.609 18.005 135.662 17.9973C135.464 19.2144 135.164 20.3216 134.761 21.3182C134.57 20.9832 134.355 20.6714 134.116 20.3821C133.876 20.0932 133.539 19.8003 133.106 19.5036C132.672 19.2068 132.198 18.992 131.685 18.8588C131.171 18.7258 130.534 18.6971 129.773 18.7731C129.012 18.8495 128.198 19.0663 127.331 19.424C127.582 20.0554 127.865 20.6108 128.181 21.0902C128.497 21.5693 128.818 21.95 129.146 22.2315C129.473 22.5131 129.823 22.7374 130.196 22.905C130.568 23.0723 130.922 23.1806 131.257 23.2301C131.592 23.2795 131.938 23.289 132.295 23.2586C132.653 23.228 132.969 23.1784 133.243 23.1102C133.516 23.0416 133.79 22.9542 134.064 22.8476C133.288 24.278 132.331 25.3983 131.194 26.2084C130.057 27.0187 128.83 27.4278 127.514 27.4354C127.369 27.4354 127.247 27.4829 127.148 27.5782C127.049 27.6733 127 27.793 127 27.9375C127 28.082 127.049 28.2036 127.148 28.3026C127.247 28.4014 127.369 28.4511 127.514 28.4511C129.096 28.4433 130.559 27.9396 131.901 26.939C133.244 25.9383 134.346 24.5708 135.205 22.8363L135.399 22.9502C135.521 23.0263 135.696 23.1118 135.924 23.2069C136.153 23.3021 136.417 23.4067 136.718 23.5207C137.018 23.6349 137.347 23.7185 137.705 23.7717C138.062 23.8252 138.429 23.8573 138.806 23.8688C139.183 23.8802 139.569 23.8252 139.964 23.7032C140.36 23.5814 140.737 23.4044 141.094 23.1724C141.452 22.9405 141.798 22.6036 142.132 22.1623C142.467 21.7213 142.756 21.1964 143 20.5877C142.497 20.1847 141.976 19.8899 141.436 19.7036Z" fill="black"/>
<path d="M10.864 12.328L11.536 11.92C11.632 11.424 11.44 11.176 10.96 11.176C10.272 11.176 9.928 11.704 9.928 12.76C9.928 13.176 9.984 13.656 10.096 14.2C11.312 15.016 11.92 16.064 11.92 17.344C11.92 18.608 11.48 19.592 10.6 20.296C9.72 21 8.528 21.352 7.024 21.352C6.4 21.352 5.752 21.288 5.08 21.16C4.376 21.608 4.024 21.944 4.024 22.168C4.024 22.392 4.536 22.504 5.56 22.504H8.008C11.64 22.504 13.456 23.808 13.456 26.416C13.456 27.824 12.904 28.936 11.8 29.752C10.712 30.584 9.008 31 6.688 31C2.736 31 0.76 30.144 0.76 28.432C0.76 27.504 1.376 26.864 2.608 26.512L4.048 27.16C3.92 27.624 3.856 28.064 3.856 28.48C3.856 29.856 4.88 30.544 6.928 30.544C8.176 30.544 9.136 30.312 9.808 29.848C10.48 29.384 10.816 28.808 10.816 28.12C10.816 27.432 10.608 26.968 10.192 26.728C9.792 26.504 8.984 26.392 7.768 26.392H5.44C4.144 26.392 3.216 26.176 2.656 25.744C2.096 25.312 1.816 24.784 1.816 24.16C1.816 23.52 2.016 22.992 2.416 22.576C2.816 22.144 3.528 21.616 4.552 20.992C2.696 20.464 1.768 19.248 1.768 17.344C1.768 16.144 2.2 15.176 3.064 14.44C3.928 13.704 5.224 13.336 6.952 13.336C7.992 13.336 8.88 13.536 9.616 13.936C9.52 13.504 9.472 13.112 9.472 12.76C9.472 11.864 9.712 11.216 10.192 10.816C10.672 10.416 11.208 10.216 11.8 10.216C12.392 10.216 12.864 10.376 13.216 10.696C13.584 11 13.768 11.424 13.768 11.968C13.768 12.512 13.624 12.92 13.336 13.192C13.048 13.448 12.696 13.576 12.28 13.576C11.88 13.576 11.544 13.472 11.272 13.264C11.016 13.04 10.88 12.728 10.864 12.328ZM5.776 16.816V18.112C5.776 19.184 5.864 19.912 6.04 20.296C6.232 20.68 6.512 20.872 6.88 20.872C7.264 20.872 7.536 20.688 7.696 20.32C7.872 19.936 7.96 19.16 7.96 17.992V16.816C7.96 15.568 7.88 14.752 7.72 14.368C7.56 13.968 7.288 13.768 6.904 13.768C6.536 13.768 6.256 13.976 6.064 14.392C5.872 14.792 5.776 15.6 5.776 16.816ZM20.8045 20.272V18.232C20.8045 16.68 20.7165 15.552 20.5405 14.848C20.3805 14.128 19.9965 13.768 19.3885 13.768C19.0365 13.768 18.7485 13.872 18.5245 14.08C18.3165 14.272 18.1645 14.6 18.0685 15.064C17.9245 15.784 17.8525 16.88 17.8525 18.352V20.224C17.8525 21.968 17.9005 23.016 17.9965 23.368C18.1085 23.72 18.2205 24.008 18.3325 24.232C18.5085 24.616 18.8525 24.808 19.3645 24.808C19.9885 24.808 20.3965 24.448 20.5885 23.728C20.7325 23.216 20.8045 22.064 20.8045 20.272ZM19.3165 25.24C17.3165 25.24 15.8045 24.728 14.7805 23.704C13.7565 22.68 13.2445 21.216 13.2445 19.312C13.2445 17.392 13.7885 15.92 14.8765 14.896C15.9805 13.856 17.5245 13.336 19.5085 13.336C21.4925 13.336 22.9725 13.816 23.9485 14.776C24.9245 15.72 25.4125 17.168 25.4125 19.12C25.4125 23.2 23.3805 25.24 19.3165 25.24ZM33.8358 20.272V18.232C33.8358 16.68 33.7478 15.552 33.5718 14.848C33.4118 14.128 33.0278 13.768 32.4198 13.768C32.0678 13.768 31.7798 13.872 31.5558 14.08C31.3478 14.272 31.1958 14.6 31.0998 15.064C30.9558 15.784 30.8838 16.88 30.8838 18.352V20.224C30.8838 21.968 30.9318 23.016 31.0278 23.368C31.1398 23.72 31.2518 24.008 31.3638 24.232C31.5398 24.616 31.8838 24.808 32.3958 24.808C33.0198 24.808 33.4278 24.448 33.6198 23.728C33.7638 23.216 33.8358 22.064 33.8358 20.272ZM32.3478 25.24C30.3478 25.24 28.8358 24.728 27.8118 23.704C26.7878 22.68 26.2758 21.216 26.2758 19.312C26.2758 17.392 26.8198 15.92 27.9078 14.896C29.0118 13.856 30.5558 13.336 32.5398 13.336C34.5238 13.336 36.0038 13.816 36.9798 14.776C37.9558 15.72 38.4438 17.168 38.4438 19.12C38.4438 23.2 36.4118 25.24 32.3478 25.24ZM43.987 20.032C43.987 21.712 44.075 22.832 44.251 23.392C44.427 23.936 44.747 24.208 45.211 24.208C45.691 24.208 46.099 24 46.435 23.584C46.787 23.168 46.963 22.552 46.963 21.736V16.504C46.963 15.816 46.827 15.232 46.555 14.752C46.283 14.272 45.883 14.032 45.355 14.032C44.827 14.032 44.467 14.384 44.275 15.088C44.083 15.792 43.987 17.024 43.987 18.784V20.032ZM47.275 25L47.011 23.32C46.467 24.6 45.363 25.24 43.699 25.24C42.323 25.24 41.251 24.744 40.483 23.752C39.731 22.76 39.355 21.28 39.355 19.312C39.355 15.328 40.939 13.336 44.107 13.336C45.515 13.336 46.443 13.728 46.891 14.512V7.432H45.427V7H51.427V24.568H52.603V25H47.275ZM70.1204 16.312C70.1204 19.608 69.1924 21.904 67.3364 23.2C65.6244 24.4 63.2724 25 60.2804 25H53.4884V24.544H55.0724V8.656H53.4884V8.2H60.9044C63.9764 8.2 66.2804 8.832 67.8164 10.096C69.3524 11.344 70.1204 13.416 70.1204 16.312ZM59.7524 24.544H60.6644C62.2804 24.544 63.4324 23.976 64.1204 22.84C64.8244 21.688 65.1764 19.768 65.1764 17.08V15.688C65.1764 12.088 64.4884 9.92 63.1124 9.184C62.4564 8.832 61.5284 8.656 60.3284 8.656H59.7524V24.544ZM77.6536 25.24C75.5896 25.24 74.0376 24.712 72.9976 23.656C71.9736 22.584 71.4616 21.104 71.4616 19.216C71.4616 17.312 72.0376 15.856 73.1896 14.848C74.3576 13.84 75.8376 13.336 77.6296 13.336C81.2616 13.336 83.0056 15.16 82.8616 18.808H76.0936V19.744C76.0936 21.312 76.2936 22.496 76.6936 23.296C77.0936 24.096 77.7896 24.496 78.7816 24.496C80.6376 24.496 81.8536 23.504 82.4296 21.52L82.8616 21.592C82.5576 22.744 82.0056 23.64 81.2056 24.28C80.4216 24.92 79.2376 25.24 77.6536 25.24ZM76.1176 18.328H78.5896V17.152C78.5896 15.856 78.5096 14.976 78.3496 14.512C78.2056 14.032 77.9016 13.792 77.4376 13.792C76.9896 13.792 76.6536 14.048 76.4296 14.56C76.2216 15.056 76.1176 15.92 76.1176 17.152V18.328ZM90.0286 25.24C87.9646 25.24 86.4126 24.712 85.3726 23.656C84.3486 22.584 83.8366 21.104 83.8366 19.216C83.8366 17.312 84.4126 15.856 85.5646 14.848C86.7326 13.84 88.2126 13.336 90.0046 13.336C93.6366 13.336 95.3806 15.16 95.2366 18.808H88.4686V19.744C88.4686 21.312 88.6686 22.496 89.0686 23.296C89.4686 24.096 90.1646 24.496 91.1566 24.496C93.0126 24.496 94.2286 23.504 94.8046 21.52L95.2366 21.592C94.9326 22.744 94.3806 23.64 93.5806 24.28C92.7966 24.92 91.6126 25.24 90.0286 25.24ZM88.4926 18.328H90.9646V17.152C90.9646 15.856 90.8846 14.976 90.7246 14.512C90.5806 14.032 90.2766 13.792 89.8126 13.792C89.3646 13.792 89.0286 14.048 88.8046 14.56C88.5966 15.056 88.4926 15.92 88.4926 17.152V18.328ZM100.964 20.032C100.964 21.712 101.052 22.832 101.228 23.392C101.404 23.936 101.724 24.208 102.188 24.208C102.668 24.208 103.076 24 103.412 23.584C103.764 23.168 103.94 22.552 103.94 21.736V16.504C103.94 15.816 103.804 15.232 103.532 14.752C103.26 14.272 102.86 14.032 102.332 14.032C101.804 14.032 101.444 14.384 101.252 15.088C101.06 15.792 100.964 17.024 100.964 18.784V20.032ZM104.252 25L103.988 23.32C103.444 24.6 102.34 25.24 100.676 25.24C99.2996 25.24 98.2276 24.744 97.4596 23.752C96.7076 22.76 96.3316 21.28 96.3316 19.312C96.3316 15.328 97.9156 13.336 101.084 13.336C102.492 13.336 103.42 13.728 103.868 14.512V7.432H102.404V7H108.404V24.568H109.58V25H104.252ZM110.519 25.24V20.944H110.807C111.223 22.336 111.783 23.312 112.487 23.872C113.191 24.432 114.071 24.712 115.127 24.712C116.759 24.712 117.575 24.192 117.575 23.152C117.575 22.704 117.375 22.368 116.975 22.144C116.351 21.792 115.551 21.52 114.575 21.328C113.487 21.04 112.575 20.656 111.839 20.176C110.959 19.6 110.519 18.688 110.519 17.44C110.519 16.192 110.903 15.2 111.671 14.464C112.439 13.712 113.463 13.336 114.743 13.336C115.527 13.336 116.335 13.52 117.167 13.888C117.471 14.016 117.703 14.08 117.863 14.08C118.023 14.08 118.159 14.024 118.271 13.912C118.383 13.8 118.519 13.592 118.679 13.288H118.943V16.96H118.655C117.839 14.88 116.575 13.84 114.863 13.84C114.111 13.84 113.551 13.976 113.183 14.248C112.815 14.504 112.631 14.832 112.631 15.232C112.631 15.472 112.687 15.664 112.799 15.808C112.911 15.936 112.999 16.032 113.063 16.096C113.127 16.16 113.231 16.232 113.375 16.312C113.519 16.376 113.639 16.432 113.735 16.48C113.831 16.512 113.975 16.56 114.167 16.624C114.375 16.688 114.527 16.728 114.623 16.744C115.711 17.016 116.495 17.256 116.975 17.464C117.455 17.656 117.911 17.896 118.343 18.184C119.223 18.792 119.663 19.776 119.663 21.136C119.663 22.48 119.263 23.504 118.463 24.208C117.663 24.896 116.567 25.24 115.175 25.24C114.183 25.24 113.223 25.008 112.295 24.544C112.103 24.416 111.951 24.352 111.839 24.352C111.487 24.352 111.143 24.648 110.807 25.24H110.519Z" fill="#C39B82"/>
</svg>
